# Blender 3.4.1
# www.blender.org
mtllib 10x8x8x4_L.mtl
o Cube.024
v 0.011111 -0.063333 -0.040000
v 0.011111 -0.063333 0.040000
v -0.028889 -0.063333 -0.040000
v -0.028889 -0.063333 0.040000
v 0.011111 0.036667 -0.040000
v 0.011111 0.036667 0.040000
v -0.028889 0.036667 -0.040000
v -0.028889 0.036667 0.040000
v -0.028889 -0.003333 -0.040000
v -0.028889 -0.003333 0.040000
v -0.028889 0.036667 -0.040000
v -0.028889 0.036667 0.040000
v 0.051111 -0.003333 -0.040000
v 0.051111 -0.003333 0.040000
v 0.051111 0.036667 -0.040000
v 0.051111 0.036667 0.040000
vn -0.0000 -1.0000 -0.0000
vn -1.0000 -0.0000 -0.0000
vn -0.0000 1.0000 -0.0000
vn 1.0000 -0.0000 -0.0000
vn -0.0000 -0.0000 -1.0000
vn -0.0000 -0.0000 1.0000
vt 0.375000 0.000000
vt 0.375000 1.000000
vt 0.125000 0.750000
vt 0.625000 0.000000
vt 0.625000 1.000000
vt 0.875000 0.750000
vt 0.375000 0.250000
vt 0.125000 0.500000
vt 0.625000 0.250000
vt 0.875000 0.500000
vt 0.375000 0.750000
vt 0.625000 0.750000
vt 0.375000 0.500000
vt 0.625000 0.500000
vt 0.375000 0.000000
vt 0.375000 1.000000
vt 0.125000 0.750000
vt 0.625000 0.000000
vt 0.625000 1.000000
vt 0.875000 0.750000
vt 0.375000 0.250000
vt 0.125000 0.500000
vt 0.625000 0.250000
vt 0.875000 0.500000
vt 0.375000 0.750000
vt 0.625000 0.750000
vt 0.375000 0.500000
vt 0.625000 0.500000
s 0
f 1/1/1 2/4/1 4/9/1 3/7/1
f 3/7/2 4/9/2 8/14/2 7/13/2
f 7/13/3 8/14/3 6/12/3 5/11/3
f 5/11/4 6/12/4 2/5/4 1/2/4
f 3/8/5 7/13/5 5/11/5 1/3/5
f 8/14/6 4/10/6 2/6/6 6/12/6
f 9/15/2 10/18/2 12/23/2 11/21/2
f 11/21/3 12/23/3 16/28/3 15/27/3
f 15/27/4 16/28/4 14/26/4 13/25/4
f 13/25/1 14/26/1 10/19/1 9/16/1
f 11/22/5 15/27/5 13/25/5 9/17/5
f 16/28/6 12/24/6 10/20/6 14/26/6
